HIERARCHY
ROOT root
{
	OFFSET 0.000000 0.000000 0.000000
	CHANNELS 6 Xposition Yposition Zposition Zrotation Yrotation Xrotation
	JOINT lhip
	{
		OFFSET 0.058581 -0.082280 -0.017664
		CHANNELS 3 Zrotation Yrotation Xrotation
		JOINT lknee
		{
			OFFSET 0.043451 -0.386469 0.008037
			CHANNELS 3 Zrotation Yrotation Xrotation
			JOINT lankle
			{
				OFFSET -0.014790 -0.426874 -0.037428
				CHANNELS 3 Zrotation Yrotation Xrotation
				JOINT ltoe
				{
					OFFSET 0.041054 -0.060286 0.122042
					CHANNELS 3 Zrotation Yrotation Xrotation
					End Site
					{
						OFFSET 0.000000 0.000000 0.000000
					}
				}
			}
		}
	}
	JOINT rhip
	{
		OFFSET -0.060310 -0.090513 -0.013543
		CHANNELS 3 Zrotation Yrotation Xrotation
		JOINT rknee
		{
			OFFSET -0.043257 -0.383688 -0.004843
			CHANNELS 3 Zrotation Yrotation Xrotation
			JOINT rankle
			{
				OFFSET 0.019056 -0.420046 -0.034562
				CHANNELS 3 Zrotation Yrotation Xrotation
				JOINT rtoe
				{
					OFFSET -0.034840 -0.062106 0.130323
					CHANNELS 3 Zrotation Yrotation Xrotation
					End Site
					{
						OFFSET 0.000000 0.000000 0.000000
					}
				}
			}
		}
	}
	JOINT lowerback
	{
		OFFSET 0.004439 0.124404 -0.038385
		CHANNELS 3 Zrotation Yrotation Xrotation
		JOINT upperback
		{
			OFFSET 0.004488 0.137956 0.026820
			CHANNELS 3 Zrotation Yrotation Xrotation
			JOINT chest
			{
				OFFSET -0.002265 0.056032 0.002855
				CHANNELS 3 Zrotation Yrotation Xrotation
				JOINT lowerneck
				{
					OFFSET -0.013390 0.211636 -0.033468
					CHANNELS 3 Zrotation Yrotation Xrotation
					JOINT upperneck
					{
						OFFSET 0.010113 0.088937 0.050410
						CHANNELS 3 Zrotation Yrotation Xrotation
						End Site
						{
							OFFSET 0.000000 0.000000 0.000000
						}
					}
				}
				JOINT lclavicle
				{
					OFFSET 0.071702 0.114000 -0.018898
					CHANNELS 3 Zrotation Yrotation Xrotation
					JOINT lshoulder
					{
						OFFSET 0.122921 0.045205 -0.019046
						CHANNELS 3 Zrotation Yrotation Xrotation
						JOINT lelbow
						{
							OFFSET 0.255332 -0.015649 -0.022946
							CHANNELS 3 Zrotation Yrotation Xrotation
							JOINT lwrist
							{
								OFFSET 0.265709 0.012698 -0.007375
								CHANNELS 3 Zrotation Yrotation Xrotation
								End Site
								{
									OFFSET 0.000000 0.000000 0.000000
								}
							}
						}
					}
				}
				JOINT rclavicle
				{
					OFFSET -0.082954 0.112472 -0.023707
					CHANNELS 3 Zrotation Yrotation Xrotation
					JOINT rshoulder
					{
						OFFSET -0.113228 0.046853 -0.008472
						CHANNELS 3 Zrotation Yrotation Xrotation
						JOINT relbow
						{
							OFFSET -0.260127 -0.014369 -0.031269
							CHANNELS 3 Zrotation Yrotation Xrotation
							JOINT rwrist
							{
								OFFSET -0.269108 0.006794 -0.006027
								CHANNELS 3 Zrotation Yrotation Xrotation
								End Site
								{
									OFFSET 0.000000 0.000000 0.000000
								}
							}
						}
					}
				}
			}
		}
	}
}
MOTION
Frames: 5
Frame Time: 0.033333
-1.876732 0.833516 1.554947 85.150540 -1.639896 89.947563 -4.310101 -4.869960 -5.059163 -3.496269 -10.058211 16.739407 -0.014706 3.904713 -14.372534 0.000000 -0.000000 0.000000 1.871845 -3.617165 -1.895793 -2.046474 -3.137746 10.307421 4.586691 -4.315665 -9.946481 0.000000 -0.000000 0.000000 4.162257 2.045246 5.459668 0.210734 -2.444218 3.849039 -3.589508 0.508236 1.375686 -0.448789 -10.667929 1.686301 3.209825 -16.544044 4.462462 -25.629333 1.668667 4.380154 -54.243603 -5.714699 11.945420 9.551334 -37.204929 10.637661 -11.552179 -14.251924 -8.195834 20.388067 1.151593 1.544419 64.160962 -2.272364 8.345651 -23.848775 27.573268 -3.336404 18.520673 9.610290 -12.885731 
-1.877854 0.833187 1.553728 84.392802 -1.198382 90.363461 -4.426517 -4.089824 -5.040362 -3.122306 -9.188397 15.811407 -0.200751 4.246493 -14.569654 0.000000 -0.000000 0.000000 1.613264 -3.072913 -2.300621 -2.100048 -2.735478 10.177505 5.561225 -4.403591 -9.446170 0.000000 -0.000000 0.000000 4.078171 2.011167 5.645549 0.335701 -1.836241 3.775556 -3.202538 0.668321 1.670161 -0.093960 -10.105924 0.332922 2.347917 -15.995855 5.051249 -25.075206 1.738633 4.534610 -54.365030 -5.970852 12.614639 8.619619 -37.862490 12.227171 -13.843334 -15.701916 -7.988396 20.708588 1.316497 1.818362 62.466337 -0.958216 8.246553 -20.282119 26.673769 -4.083177 21.584321 12.963160 -15.461594 
-1.879796 0.832350 1.553089 83.625309 -0.818751 90.558882 -4.787514 -3.451177 -5.057754 -3.073568 -8.700484 15.385121 0.529642 4.485323 -14.882921 0.000000 -0.000000 0.000000 1.264846 -2.595706 -3.282925 -2.216237 -2.362223 11.187520 6.184234 -4.251032 -8.923615 0.000000 -0.000000 0.000000 3.504477 2.018138 6.321242 0.580276 -1.418947 3.555033 -2.786701 0.808014 1.693564 0.576037 -9.918502 0.098397 2.336609 -15.964814 5.485902 -24.641834 1.988508 4.620692 -54.230533 -6.055014 12.830102 7.823129 -38.896112 13.423991 -15.263666 -15.999895 -7.216323 21.034784 1.486392 1.840523 61.517679 -0.213636 7.993737 -18.993621 25.931132 -4.893339 23.607516 14.648819 -16.155035 
-1.882522 0.831082 1.553283 83.153232 -0.466044 90.716561 -5.250873 -3.634742 -5.941210 -3.295436 -8.082412 16.337950 1.643566 5.262730 -14.616292 0.000000 -0.000000 0.000000 0.818215 -2.424088 -5.164263 -2.273492 -2.103132 13.660041 6.740073 -3.988719 -8.045961 0.000000 -0.000000 0.000000 2.606229 2.148392 7.216034 0.917177 -1.481294 3.331701 -2.428687 0.613807 1.903558 1.089392 -9.419390 -0.085448 2.556595 -15.633119 5.305329 -24.168432 1.930597 4.620947 -54.007278 -6.075904 12.946021 7.398612 -39.386121 13.658403 -14.391058 -15.558030 -7.090340 21.153576 1.556591 1.689031 61.614572 0.459000 8.173022 -20.073821 25.514000 -6.292904 23.263897 14.488736 -15.894429 
-1.884057 0.830130 1.553950 82.906108 -0.227274 90.669965 -5.401622 -3.609775 -6.311373 -3.317867 -7.921435 16.772561 2.337351 5.684992 -14.301539 0.000000 -0.000000 0.000000 0.673432 -2.331171 -6.261363 -2.111451 -2.093558 15.298774 6.724064 -3.937124 -7.418895 0.000000 -0.000000 0.000000 2.167531 2.195002 7.744896 1.055514 -1.527512 3.288174 -2.272023 0.520999 2.005847 1.120257 -9.166000 0.141672 2.792818 -15.371304 5.088954 -23.786979 1.555386 4.760992 -54.015428 -6.127563 12.861932 7.582278 -39.125455 13.212108 -13.396275 -15.684964 -7.463987 21.043364 1.729639 1.750117 62.143749 0.621554 8.120963 -20.949499 25.759900 -7.367097 22.385614 14.487342 -16.275298 
